<svg width="40" height="47" viewBox="0 0 40 47" fill="none" xmlns="http://www.w3.org/2000/svg">
<path d="M35.968 15.296C35.5413 11.2853 34.1333 8.17067 31.744 5.952C29.3973 3.73334 26.368 2.624 22.656 2.624C20.3947 2.624 18.2613 3.11467 16.256 4.096C14.2933 5.03467 12.5653 6.4 11.072 8.19201C9.57867 9.984 8.40533 12.1387 7.552 14.656C6.69867 17.1733 6.272 20.0107 6.272 23.168C6.272 27.1787 7.04 30.72 8.576 33.792C10.112 36.864 12.1813 39.2533 14.784 40.96C17.3867 42.6667 20.2667 43.52 23.424 43.52C26.1973 43.52 28.928 42.9013 31.616 41.664C34.304 40.384 36.5013 38.5493 38.208 36.16L39.872 37.504C38.0373 40.0213 36.0533 41.9627 33.92 43.328C31.7867 44.6933 29.6533 45.6107 27.52 46.08C25.4293 46.592 23.5093 46.848 21.76 46.848C18.56 46.848 15.616 46.272 12.928 45.12C10.2827 43.968 7.97867 42.368 6.016 40.32C4.096 38.2293 2.60267 35.8187 1.536 33.088C0.512 30.3147 0 27.328 0 24.128C0 21.0987 0.448 18.1547 1.344 15.296C2.28267 12.4373 3.66933 9.856 5.504 7.552C7.33867 5.248 9.64267 3.41334 12.416 2.048C15.232 0.682671 18.496 3.8147e-06 22.208 3.8147e-06C24.5973 3.8147e-06 26.8587 0.320004 28.992 0.960003C31.1253 1.6 33.1733 2.58134 35.136 3.904L34.816 0.448002H38.272V15.296H35.968Z" fill="#F2D5A6"/>
</svg>
